PathFileType	4	(X/Y/Z)	C:\Users\Basilio\Documents\Thesis Gigler\squatting_fais\c3dfiles\044\SLS_front_pre3\markers_experimental.trc
DataRate	CameraRate	NumFrames	NumMarkers	Units	OrigDataRate	OrigDataStartFrame	OrigNumFrames
200.000000	200.000000	4	60	mm	200.000000	688	1376
Frame#	Time	FHD			LBHD			RBHD			C7			T10			CLAV			LSHO			LUUPA			LMUPA			LDUPA			LLEP			LMEP			LUL			LRFIN			RSHO			RUPA1			RMUPA			RDUPA			RLEP			RMEP			RUL			RUFIN			LASI			RASI			USACR			LSACR			RSACR			LTHI1			LTHI2			LTHI3			LTHI4			LLFC			LMFC			LTIB1			LTIB2			LTIB3			LTIB4			LLMAL			LMMAL			LHEE			LMT1			LMT2			LMT5			RTHI			RTHI2			RTHI3			RTHI4			RLFC			RMFC			RTIB1			RTIB2			RTIB3			RTIB4			RLMAL			RHEE			RMT1			RMT2			RMT5			LRAD			RMMAL			
		X1	Y1	Z1	X2	Y2	Z2	X3	Y3	Z3	X4	Y4	Z4	X5	Y5	Z5	X6	Y6	Z6	X7	Y7	Z7	X8	Y8	Z8	X9	Y9	Z9	X10	Y10	Z10	X11	Y11	Z11	X12	Y12	Z12	X13	Y13	Z13	X14	Y14	Z14	X15	Y15	Z15	X16	Y16	Z16	X17	Y17	Z17	X18	Y18	Z18	X19	Y19	Z19	X20	Y20	Z20	X21	Y21	Z21	X22	Y22	Z22	X23	Y23	Z23	X24	Y24	Z24	X25	Y25	Z25	X26	Y26	Z26	X27	Y27	Z27	X28	Y28	Z28	X29	Y29	Z29	X30	Y30	Z30	X31	Y31	Z31	X32	Y32	Z32	X33	Y33	Z33	X34	Y34	Z34	X35	Y35	Z35	X36	Y36	Z36	X37	Y37	Z37	X38	Y38	Z38	X39	Y39	Z39	X40	Y40	Z40	X41	Y41	Z41	X42	Y42	Z42	X43	Y43	Z43	X44	Y44	Z44	X45	Y45	Z45	X46	Y46	Z46	X47	Y47	Z47	X48	Y48	Z48	X49	Y49	Z49	X50	Y50	Z50	X51	Y51	Z51	X52	Y52	Z52	X53	Y53	Z53	X54	Y54	Z54	X55	Y55	Z55	X56	Y56	Z56	X57	Y57	Z57	X58	Y58	Z58	X59	Y59	Z59	X60	Y60	Z60	

689	3.44	-193.9815673828126	1573.300415039063	-1027.90576171875	-327.6207580566407	1541.663940429688	-1107.444213867188	-372.1377868652344	1523.296997070313	-948.3406982421877	-397.5935363769532	1365.567749023438	-1040.225952148438	-480.602264404297	1082.503051757813	-1016.276550292969	-266.8385009765626	1306.180908203125	-1036.15576171875	-300.5138854980469	1370.272705078125	-1180.816162109375	-140.0494842529297	1345.121337890625	-1282.884643554688	-110.9492645263672	1354.444702148438	-1242.8671875	-70.29360198974611	1340.241943359375	-1286.288818359375	-10.92336559295654	1338.314575195313	-1277.504028320313	-21.46631240844727	1261.306762695313	-1266.9375	235.1191864013672	1343.7109375	-1141.049560546875	238.5020141601563	1356.158813476563	-1037.612182617188	-318.8348388671876	1367.2392578125	-884.234558105469	-168.7399444580078	1336.847534179688	-782.3399658203127	-138.3427734375	1350.897338867188	-820.9240722656252	-99.38852691650393	1332.8115234375	-779.7589111328127	-37.91744613647462	1333.446533203125	-788.9766235351565	-43.75770950317384	1253.116088867188	-802.3388671875002	218.4771423339844	1340.880737304688	-903.507019042969	235.2971343994141	1330.74658203125	-1018.229553222656	-353.0631103515626	857.8049316406252	-1095.147094726563	-351.5153808593751	864.6956176757815	-882.0997314453127	-516.4246826171876	922.3425292968752	-985.4507446289065	-526.2449340820314	888.6966552734377	-1009.393493652344	-526.4289550781251	896.6110839843752	-954.3179931640627	-325.4354858398438	652.9772338867189	-1164.488891601563	-245.3893585205079	623.2468872070314	-1165.63623046875	-212.9195404052735	656.7132568359376	-1157.91455078125	-227.6305084228516	567.4228515625001	-1150.890869140625	-120.3908920288086	465.3066711425782	-1125.752197265625	-116.7938385009766	473.5884399414064	-1005.341918945313	-161.8025817871094	311.1803894042969	-1026.63818359375	-205.0987396240235	271.8711547851563	-1093.091064453125	-178.3799896240235	260.3372802734376	-1052.977294921875	-232.2456207275391	207.8072204589844	-1016.259399414063	-333.3283691406251	125.8119506835938	-1058.607543945313	-312.8309936523438	137.7284851074219	-972.0219726562502	-407.2520751953126	110.882438659668	-1007.210327148438	-201.1760253906251	60.03957366943361	-983.3626708984377	-199.2849884033204	63.40913391113283	-1029.505859375	-237.4586181640626	52.29896545410158	-1076.350463867188	-258.4569702148438	670.0288696289064	-797.1545410156252	-190.6169738769532	678.8013916015626	-801.0071411132815	-176.4813537597657	707.7836914062501	-812.2052001953127	-136.9473571777344	615.7265625000001	-818.657897949219	-58.06732559204103	546.8363647460939	-831.144714355469	-61.20937347412111	541.6054077148439	-950.388854980469	42.19120407104493	458.1740112304689	-862.0872802734377	11.39479160308838	360.8305053710938	-819.066589355469	50.40943527221681	373.7508850097657	-838.116882324219	81.68250274658205	334.3481445312501	-865.1987915039065	91.02535247802736	166.4595489501953	-856.0650634765627	68.8202362060547	98.42949676513675	-900.984313964844	248.9763641357422	217.7653808593751	-917.5590820312502	249.1352233886719	218.6069030761719	-879.7966308593752	228.7399902343751	181.8668823242188	-827.841247558594	220.4562377929688	1291.697631835938	-1094.93603515625	108.129867553711	185.5631561279297	-938.8249511718752	
690	3.445	-194.0309753417969	1573.100219726563	-1027.936889648438	-327.6649780273438	1541.357055664063	-1107.4208984375	-372.1470947265626	1523.015747070313	-948.358093261719	-397.5886535644532	1365.244506835938	-1040.271850585938	-480.5576171875001	1082.289794921875	-1016.346557617188	-266.7760620117188	1305.94970703125	-1036.2109375	-300.3601074218751	1369.923706054688	-1180.831420898438	-140.0142669677735	1344.863525390625	-1282.96728515625	-110.8727188110352	1354.131958007813	-1242.95361328125	-70.25411987304689	1340.081909179688	-1286.53955078125	-10.8350830078125	1337.898803710938	-1277.610717773438	-21.3451099395752	1261.323364257813	-1266.916870117188	235.0821380615235	1343.565673828125	-1141.238891601563	238.6634521484376	1355.802368164063	-1037.908325195313	-318.7624206542969	1366.84716796875	-884.2886352539065	-168.7416534423828	1336.58056640625	-782.3607177734377	-138.2882080078125	1350.40087890625	-820.961608886719	-99.47927856445315	1332.64111328125	-779.8457641601565	-38.01728439331055	1333.16455078125	-788.9830322265627	-43.78823471069337	1252.861083984375	-802.2517700195315	218.5798950195313	1340.361938476563	-903.4084472656252	235.3072204589844	1330.396728515625	-1018.294860839844	-353.1072998046876	857.5022583007815	-1095.15380859375	-351.6336975097657	864.4565429687502	-882.0684814453127	-516.4281616210939	922.165710449219	-985.4940185546877	-526.0659790039064	888.435241699219	-1009.510681152344	-526.3554687500001	896.2854003906252	-954.3020019531252	-325.2810363769532	652.8375854492189	-1164.448364257813	-245.2752838134766	623.1004638671876	-1165.53369140625	-212.7227783203126	656.3457641601564	-1157.804443359375	-227.6451263427735	567.2807617187501	-1150.790771484375	-120.2009963989258	465.1931152343751	-1125.613159179688	-116.6454315185547	473.5564270019532	-1005.179809570313	-161.6810302734375	311.0589294433594	-1026.527465820313	-205.0074920654297	271.8655090332032	-1092.912109375	-178.3415069580078	260.3183593750001	-1052.866333007813	-232.2492370605469	207.7939147949219	-1016.171936035156	-333.3737487792969	125.7998809814453	-1058.579467773438	-312.8033447265626	137.6876678466797	-971.9716796875002	-407.2999572753907	111.2564926147461	-1007.478271484375	-201.3460540771485	60.2633514404297	-983.3188476562502	-199.2677459716797	63.37291717529298	-1029.477416992188	-237.4868927001954	52.34075164794923	-1076.278076171875	-258.6117248535157	669.8244628906251	-796.966491699219	-190.6861419677735	678.6908569335939	-800.8621215820315	-176.5805358886719	707.4725952148439	-812.1043701171877	-137.0563354492188	615.4738159179689	-818.4848632812502	-58.09318161010744	546.7202148437501	-830.8691406250002	-61.18088531494142	541.2583007812501	-950.1463012695315	42.15964889526368	457.9486389160157	-861.720642089844	11.30514621734619	360.4890441894532	-818.5903930664065	50.37574768066408	373.5690917968751	-837.8107910156252	81.70881652832033	333.9832153320313	-864.8662719726565	91.11209106445314	166.3597869873047	-855.5974731445315	68.75167846679689	98.41481781005862	-900.9290771484377	249.0767669677735	218.266830444336	-917.2862548828127	248.8467559814454	218.6329193115235	-879.872253417969	228.9390411376954	181.7332153320313	-827.2310180664065	220.4017944335938	1291.245971679688	-1095.000122070313	107.9982147216797	185.3263549804688	-938.2026977539065	
691	3.45	-193.9909210205079	1572.935302734375	-1027.933349609375	-327.6166687011719	1541.081420898438	-1107.425537109375	-372.1962280273438	1522.78662109375	-948.397644042969	-397.5499877929689	1364.935546875	-1040.297119140625	-480.5935058593751	1082.033081054688	-1016.343688964844	-266.7355651855469	1305.6953125	-1036.248901367188	-300.1534423828126	1369.561157226563	-1180.780395507813	-139.9727935791016	1344.59375	-1283.02685546875	-110.8507690429688	1353.900634765625	-1242.999755859375	-70.29375457763673	1339.84033203125	-1286.587280273438	-10.77719879150391	1337.564575195313	-1277.713500976563	-21.69573211669922	1260.51611328125	-1266.7880859375	235.0847473144532	1343.260986328125	-1141.29541015625	238.3913726806641	1355.702880859375	-1038.062622070313	-318.8814086914063	1366.591674804688	-884.332702636719	-168.6575469970703	1336.246459960938	-782.4123535156252	-138.4029846191407	1350.626098632813	-821.422546386719	-99.41584014892581	1332.391845703125	-779.8342895507815	-37.96164321899415	1332.8662109375	-789.0665283203127	-43.68701553344727	1252.623168945313	-802.4885864257815	218.5910034179688	1340.20068359375	-903.4698486328127	235.2953491210938	1330.052490234375	-1018.368103027344	-353.0323486328126	857.178161621094	-1095.17578125	-351.6988830566407	864.2747192382815	-882.1568603515627	-516.4167480468751	921.9378051757815	-985.535339355469	-526.0714111328126	888.1607055664065	-1009.560607910156	-526.3825683593751	896.0089111328127	-954.3253173828127	-325.1827697753907	652.6291503906251	-1164.379272460938	-245.2129821777344	622.9133300781251	-1165.415649414063	-212.7670593261719	656.3284301757814	-1157.71484375	-227.6663665771485	566.8848876953126	-1150.6357421875	-120.1103286743164	465.1297607421876	-1125.447021484375	-116.4500885009766	473.6248168945314	-1004.967956542969	-161.5888977050782	311.0072021484376	-1026.306274414063	-204.9047241210938	271.7867736816407	-1092.739013671875	-178.3439483642578	260.2722778320313	-1052.744873046875	-232.2208557128907	207.7805633544922	-1016.123962402344	-333.3955383300782	125.8073348999024	-1058.487548828125	-312.8023071289063	137.6837921142578	-971.973815917969	-407.3707580566407	111.2761459350586	-1007.407470703125	-201.5421295166016	60.51475143432619	-983.4144287109377	-199.7883453369141	63.75830841064455	-1029.909423828125	-237.486557006836	52.28767395019533	-1076.261108398438	-258.7240905761719	669.5263671875001	-796.7747192382815	-190.8584289550782	678.4295654296876	-800.8587036132815	-176.671615600586	706.9765014648439	-812.1477050781252	-137.2747039794922	615.1563110351564	-818.3799438476565	-58.16061019897462	546.3763427734376	-830.7263183593752	-61.23861312866212	541.0548706054689	-949.957946777344	42.12071609497071	457.6295776367189	-861.3114013671877	11.35673999786377	360.1108398437501	-818.2611083984377	50.38855361938478	373.2655334472657	-837.5389404296877	81.74746704101564	333.8041992187501	-864.5565185546877	91.14525604248048	165.9629669189453	-855.1693115234377	69.06936645507814	97.61507415771487	-900.2329711914065	249.1775817871094	218.1885223388672	-916.8940429687502	248.8646545410157	218.5974884033204	-879.3916625976565	228.9358520507813	181.5561065673828	-826.741149902344	220.5494079589844	1290.880004882813	-1095.122314453125	107.9309692382813	185.0613250732422	-937.874694824219	
692	3.455	-193.7348632812501	1572.671997070313	-1027.983032226563	-327.4382324218751	1540.793212890625	-1107.507080078125	-372.1946105957032	1522.54638671875	-948.455749511719	-397.5968017578126	1364.829223632813	-1040.365356445313	-480.6356201171876	1081.664184570313	-1016.396362304688	-266.7095336914063	1305.460693359375	-1036.275268554688	-299.9991455078126	1369.299560546875	-1180.827758789063	-139.8955383300782	1344.337036132813	-1283.083862304688	-110.7897567749024	1353.630737304688	-1242.973876953125	-70.24272918701173	1339.498413085938	-1286.651489257813	-10.75604152679444	1337.2451171875	-1277.84619140625	-21.18145370483399	1261.927978515625	-1266.914672851563	235.1147613525391	1342.989624023438	-1141.331665039063	238.4336853027344	1355.338012695313	-1038.151977539063	-318.7413940429688	1366.22119140625	-884.373229980469	-168.5948791503907	1335.831176757813	-782.527282714844	-138.2185668945313	1349.71923828125	-820.9570312500002	-99.24700927734378	1331.86474609375	-779.7510375976565	-37.98852920532227	1332.653076171875	-789.0723266601565	-43.72511291503907	1252.354370117188	-802.6483154296877	218.5927886962891	1339.983154296875	-903.5661621093752	235.2805175781251	1329.699462890625	-1018.44140625	-353.1381530761719	856.765808105469	-1095.115600585938	-351.7611389160157	864.0382080078127	-882.0830078125002	-516.4779052734376	921.8221435546877	-985.634460449219	-526.2434692382814	888.0551757812502	-1009.559448242188	-526.4374389648439	895.9692993164065	-954.3784179687502	-325.1483459472657	652.4370727539064	-1164.272583007813	-245.0758972167969	622.7387695312501	-1165.253540039063	-213.424545288086	656.6737670898439	-1157.567626953125	-227.5428924560547	566.7434082031251	-1150.454711914063	-119.8904190063477	464.9911499023439	-1125.28125	-116.3337020874024	473.6756591796876	-1004.778503417969	-161.5326690673828	310.9784240722657	-1026.182250976563	-204.7625122070313	271.8041992187501	-1092.53173828125	-178.1917877197266	260.1035461425782	-1052.556762695313	-232.2200317382813	207.7086639404297	-1015.962829589844	-333.3442993164063	126.2041778564453	-1058.332763671875	-312.8217773437501	137.6759643554688	-971.8967285156252	-407.3189697265626	111.1465606689453	-1007.444641113281	-201.7312927246094	60.66783523559572	-983.3334960937502	-199.7560119628907	63.78551483154298	-1029.8310546875	-237.4583282470704	52.31442260742189	-1076.245849609375	-258.8283691406251	669.1286621093751	-796.6028442382815	-190.8779602050782	678.1165161132814	-800.6334228515627	-176.7163696289063	706.7741699218751	-811.9995727539065	-137.3085632324219	614.8470458984376	-818.2207031250002	-58.13956451416017	546.1549682617189	-830.5639648437502	-61.13965225219728	540.6873168945314	-949.7904052734377	42.09809494018555	457.4707946777345	-861.1912841796877	11.39326667785645	359.9658508300782	-818.0437622070315	50.43437576293947	373.1690673828126	-837.3716430664065	81.65123748779298	333.5211181640626	-864.1810302734377	91.07486724853517	165.8306732177735	-854.666198730469	69.12532043457033	97.565788269043	-900.2080688476565	249.2195892333985	218.0966186523438	-916.5703735351565	249.1840209960938	218.1738433837891	-878.521179199219	228.9687957763672	181.4718780517578	-826.3216552734377	220.5522766113282	1290.474365234375	-1095.106811523438	108.1651763916016	184.9055633544922	-937.6675415039065	
